<?xml version="1.0" encoding="UTF-8" standalone="no"?>
<svg
   width="10.03125"
   height="17.601562"
   viewBox="0 0 10.03125 17.601562"
   version="1.1"
   id="svg5"
   sodipodi:docname="2.svg"
   inkscape:version="1.1 (c68e22c387, 2021-05-23)"
   xmlns:inkscape="http://www.inkscape.org/namespaces/inkscape"
   xmlns:sodipodi="http://sodipodi.sourceforge.net/DTD/sodipodi-0.dtd"
   xmlns="http://www.w3.org/2000/svg"
   xmlns:svg="http://www.w3.org/2000/svg">
  <defs
     id="defs9" />
  <sodipodi:namedview
     id="namedview7"
     pagecolor="#ffffff"
     bordercolor="#666666"
     borderopacity="1.0"
     inkscape:pageshadow="2"
     inkscape:pageopacity="0.0"
     inkscape:pagecheckerboard="0"
     showgrid="false"
     fit-margin-top="0"
     fit-margin-left="0"
     fit-margin-right="0"
     fit-margin-bottom="0"
     inkscape:zoom="25.647059"
     inkscape:cx="5.5172018"
     inkscape:cy="7.1938073"
     inkscape:window-width="1858"
     inkscape:window-height="1057"
     inkscape:window-x="54"
     inkscape:window-y="-8"
     inkscape:window-maximized="1"
     inkscape:current-layer="_2" />
  <g
     aria-label="2"
     id="_2"
     style="font-size:24px;font-family:BrandonTextMedium, 'Brandon Text';letter-spacing:-0.005em;fill:#222222">
    <path
       id="path831"
       d="M 10.03125,14.179688 8.8359375,17.601562 H 0 v -0.117187 l 4.078125,-4.96875 Q 7.171875,8.7421875 7.359375,5.5546875 7.4765625,4.0546875 6.6796875,2.8125 5.6953125,1.2421875 3.796875,1.2421875 2.4375,1.2421875 1.59375,2.625 1.2890625,3.09375 0.5625,5.109375 L 0.0703125,5.0390625 Q 0.5625,2.3671875 1.96875,1.078125 3.1640625,0 4.8046875,0 6.46875,0 7.640625,1.21875 q 1.2421875,1.359375 1.2421875,3.421875 0,3.3515625 -2.4375,6.328125 l -4.40625,5.34375 h 5.25 q 0.7734375,0 1.21875,-0.445312 0.375,-0.351563 1.078125,-1.6875 z" />
  </g>
</svg>
