<?xml version="1.0" encoding="UTF-8" standalone="no"?>
<svg
   width="8.71875"
   height="17.953125"
   viewBox="0 0 8.71875 17.953125"
   version="1.1"
   id="svg5"
   sodipodi:docname="3.svg"
   inkscape:version="1.1 (c68e22c387, 2021-05-23)"
   xmlns:inkscape="http://www.inkscape.org/namespaces/inkscape"
   xmlns:sodipodi="http://sodipodi.sourceforge.net/DTD/sodipodi-0.dtd"
   xmlns="http://www.w3.org/2000/svg"
   xmlns:svg="http://www.w3.org/2000/svg">
  <defs
     id="defs9" />
  <sodipodi:namedview
     id="namedview7"
     pagecolor="#ffffff"
     bordercolor="#666666"
     borderopacity="1.0"
     inkscape:pageshadow="2"
     inkscape:pageopacity="0.0"
     inkscape:pagecheckerboard="0"
     showgrid="false"
     fit-margin-top="0"
     fit-margin-left="0"
     fit-margin-right="0"
     fit-margin-bottom="0"
     inkscape:zoom="25.647059"
     inkscape:cx="5.1662844"
     inkscape:cy="7.2327982"
     inkscape:window-width="1858"
     inkscape:window-height="1057"
     inkscape:window-x="54"
     inkscape:window-y="-8"
     inkscape:window-maximized="1"
     inkscape:current-layer="_3" />
  <g
     aria-label="3"
     id="_3"
     style="font-size:24px;font-family:BrandonTextMedium, 'Brandon Text';letter-spacing:-0.005em;fill:#222222">
    <path
       id="path826"
       d="m 8.71875,12.023438 q 0,2.671875 -1.8046875,4.289062 -1.78125,1.640625 -4.5234375,1.640625 -0.796875,0 -1.4765625,-0.234375 Q 0,17.390625 0,16.804687 0,16.359375 0.234375,16.148437 0.46875,15.960938 0.75,16.03125 1.4296875,16.289062 2.1328125,16.59375 3.1875,16.992187 4.03125,16.921875 5.4609375,16.828125 6.46875,15.726563 7.4765625,14.625 7.4765625,13.078125 7.4765625,12.375 7.125,11.390625 6.65625,10.101563 5.859375,9.4453125 5.0859375,8.8125 4.3828125,8.6484375 3.6796875,8.4609375 2.4140625,8.53125 V 8.4609375 Q 4.1953125,7.828125 5.3671875,6.75 q 1.3125,-1.1953125 1.3125,-2.53125 0,-1.3828125 -0.8203125,-2.3671875 Q 5.0625,0.890625 3.5859375,0.890625 1.5,0.890625 0.4921875,4.1015625 l -0.421875,-0.09375 Q 1.0078125,0 4.4296875,0 6.328125,0 7.265625,1.3125 7.8984375,2.25 7.8984375,3.3984375 q 0,2.2265625 -2.15625,3.84375 1.4296875,0.796875 1.8984375,1.359375 1.078125,1.21875 1.078125,3.4218755 z" />
  </g>
</svg>
