<?xml version="1.0" encoding="UTF-8" standalone="no"?>
<!-- Generator: Adobe Illustrator 25.2.3, SVG Export Plug-In . SVG Version: 6.00 Build 0)  -->

<svg
   version="1.1"
   id="Layer_1"
   focusable="false"
   x="0px"
   y="0px"
   viewBox="0 0 548.8 512.3"
   style="enable-background:new 0 0 548.8 512.3;"
   xml:space="preserve"
   sodipodi:docname="ånderett.svg"
   inkscape:version="1.1 (c68e22c387, 2021-05-23)"
   xmlns:inkscape="http://www.inkscape.org/namespaces/inkscape"
   xmlns:sodipodi="http://sodipodi.sourceforge.net/DTD/sodipodi-0.dtd"
   xmlns="http://www.w3.org/2000/svg"
   xmlns:svg="http://www.w3.org/2000/svg"><defs
   id="defs11">
	
	
</defs><sodipodi:namedview
   id="namedview9"
   pagecolor="#ffffff"
   bordercolor="#666666"
   borderopacity="1.0"
   inkscape:pageshadow="2"
   inkscape:pageopacity="0.0"
   inkscape:pagecheckerboard="0"
   showgrid="false"
   inkscape:zoom="1.203586"
   inkscape:cx="356.01942"
   inkscape:cy="296.19818"
   inkscape:window-width="1858"
   inkscape:window-height="1057"
   inkscape:window-x="1974"
   inkscape:window-y="-8"
   inkscape:window-maximized="1"
   inkscape:current-layer="Layer_1" />
<path
   id="path4"
   d="m 500.04463,64.8 h -83.1 c -38.6,-40.7 -92.8,-64.8 -150.8,-64.8 h -66.1 C 95.54463,0 4.1446301,80.1 0.14463007,184.5 -2.1553699,244.3 23.14463,298.1 64.04463,334.8 V 504 c 0,4.4 3.6,8 8,8 h 16 c 4.4,0 8,-3.6 8,-8 V 320.5 l -10.6,-9.5 c -34.1,-30.6 -53.4,-73.7 -53.4,-119 h 179.8 l 31.1,269.5 c 0.5,25.1 19.8,46.4 46.4,50.7 l 1.2,0.2 h 210.8 l 1.2,-0.2 c 26.9,-4.4 46.4,-26.1 46.4,-51.6 v -347 c -0.1,-26.9 -22,-48.8 -48.9,-48.8 z m -212,-31.4 c 29.1,3.7 56.7,14.5 80.3,31.4 h -80.3 z m -85.2,80.2 v 0.9 l 4,34.5 h -168.6 c 20,-67.1 85.8,-117 161.8,-117 h 45 v 33.2 c -23.8,3.3 -42.2,23.7 -42.2,48.4 z m 70.7,346.9 v -0.9 l -40,-346.8 c 0.4,-9.7 8.4,-17.4 18.1,-17.4 h 149.7 c 3,3.6 5.9,7.3 8.6,11.2 12.5,17.8 29.1,66.7 42.5,106.1 9.7,28.7 18.9,55.8 27.6,75.3 h -64 v 96 c 0,17.6 -14.4,32 -32,32 h -96 v 64.1 c -8.6,-3.6 -14.5,-11.2 -14.5,-19.6 z m 244.7,0 c 0,9.9 -8.3,18.9 -19.5,21.1 h -178.7 V 448 h 64 c 35.4,0 64,-28.7 64,-64 v -64 h 32 c 23.2,0 38.6,-23.8 29.2,-45 -19.7,-44.2 -45.1,-139.1 -68.5,-179.6 h 59.3 c 10,0 18.1,8.1 18.1,18.1 v 347 z m -166.2,-268.5 a 32,32 0 0 1 -32,32 32,32 0 0 1 -32,-32 32,32 0 0 1 32,-32 32,32 0 0 1 32,32 z" />
</svg>
