<svg xmlns="http://www.w3.org/2000/svg" viewBox="0 0 1083 2048"><path d="M77.5 1247q.5-15 10.5-24l80-74q30-24 55 4 7 9 28.5 27t57.5 42 88 41 105 17q104 0 180-61t76-160q0-100-84.5-169.5T434 820H319q-38 0-38-43v-88q0-23 9.5-33t31.5-10h114q139 0 214-62t75-158q0-99-69-161t-164-62q-133 0-238 115-9 12-24 14t-29-10l-76-68q-12-11-11.5-26.5T125 201q6-7 18-19.5t51-43.5 80.5-54.5 104.5-43T504 21q183 0 305.5 103.5T932 396q0 109-65.5 196.5T721 717v6q39 17 79.5 46.5t80 72 64 101T969 1063q0 170-127 280.5T506 1454q-265 0-420-182-9-10-8.5-25z"/></svg>