<?xml version="1.0" encoding="UTF-8" standalone="no"?>
<!-- Generator: Adobe Illustrator 25.2.3, SVG Export Plug-In . SVG Version: 6.00 Build 0)  -->

<svg
   version="1.1"
   id="Layer_1"
   x="0px"
   y="0px"
   viewBox="0 0 30 30.3"
   style="enable-background:new 0 0 30 30.3;"
   xml:space="preserve"
   sodipodi:docname="cards2.svg"
   inkscape:version="1.1 (c68e22c387, 2021-05-23)"
   xmlns:inkscape="http://www.inkscape.org/namespaces/inkscape"
   xmlns:sodipodi="http://sodipodi.sourceforge.net/DTD/sodipodi-0.dtd"
   xmlns="http://www.w3.org/2000/svg"
   xmlns:svg="http://www.w3.org/2000/svg"><defs
   id="defs21">
	
	
	
	
	
	
</defs><sodipodi:namedview
   id="namedview19"
   pagecolor="#ffffff"
   bordercolor="#666666"
   borderopacity="1.0"
   inkscape:pageshadow="2"
   inkscape:pageopacity="0.0"
   inkscape:pagecheckerboard="0"
   showgrid="false"
   inkscape:zoom="28.778879"
   inkscape:cx="14.993635"
   inkscape:cy="12.387557"
   inkscape:window-width="1858"
   inkscape:window-height="1057"
   inkscape:window-x="1974"
   inkscape:window-y="-8"
   inkscape:window-maximized="1"
   inkscape:current-layer="Layer_1" />
<style
   type="text/css"
   id="style2">
	.st0{fill:#222222;}
</style>
<path
   id="path14"
   class="st0"
   d="M 24.9,0 H 5.1 C 2.2,0 -0.2,2.4 -0.2,5.3 v 19.8 c 0,2.9 2.4,5.3 5.3,5.3 h 19.8 c 2.9,0 5.3,-2.4 5.3,-5.3 V 5.2 C 30.2,2.3 27.8,0 24.9,0 Z m 3.7,25 c 0,2.1 -1.7,3.7 -3.7,3.7 H 5.1 C 3,28.7 1.4,27 1.4,25 V 5.2 C 1.4,3.1 3.1,1.5 5.1,1.5 h 19.8 c 2.1,0 3.7,1.7 3.7,3.7 z M 20,4.8 H 6 c -0.5,0 -1,0.5 -1,1 v 1 c 0,0.6 0.4,1 1,1 h 14 c 0.6,0 1,-0.4 1,-1 v -1 c 0,-0.6 -0.4,-1 -1,-1 z m -1,17.5 a 2.5,2.5 0 0 1 -2.5,2.5 2.5,2.5 0 0 1 -2.5,-2.5 2.5,2.5 0 0 1 2.5,-2.5 2.5,2.5 0 0 1 2.5,2.5 z m 0,-9 a 2.5,2.5 0 0 1 -2.5,2.5 2.5,2.5 0 0 1 -2.5,-2.5 2.5,2.5 0 0 1 2.5,-2.5 2.5,2.5 0 0 1 2.5,2.5 z m -9,9 A 2.5,2.5 0 0 1 7.5,24.8 2.5,2.5 0 0 1 5,22.3 2.5,2.5 0 0 1 7.5,19.8 2.5,2.5 0 0 1 10,22.3 Z m 0,-9 A 2.5,2.5 0 0 1 7.5,15.8 2.5,2.5 0 0 1 5,13.3 2.5,2.5 0 0 1 7.5,10.8 2.5,2.5 0 0 1 10,13.3 Z" />
</svg>
