<?xml version="1.0" encoding="UTF-8" standalone="no"?>
<svg
   id="Layer_1"
   data-name="Layer 1"
   viewBox="0 0 392.9 484.3"
   version="1.1"
   sodipodi:docname="hette.svg"
   inkscape:version="1.1 (c68e22c387, 2021-05-23)"
   xmlns:inkscape="http://www.inkscape.org/namespaces/inkscape"
   xmlns:sodipodi="http://sodipodi.sourceforge.net/DTD/sodipodi-0.dtd"
   xmlns="http://www.w3.org/2000/svg"
   xmlns:svg="http://www.w3.org/2000/svg">
  <sodipodi:namedview
     id="namedview13"
     pagecolor="#ffffff"
     bordercolor="#666666"
     borderopacity="1.0"
     inkscape:pageshadow="2"
     inkscape:pageopacity="0.0"
     inkscape:pagecheckerboard="0"
     showgrid="false"
     inkscape:zoom="1.8005369"
     inkscape:cx="196.33033"
     inkscape:cy="197.9965"
     inkscape:window-width="1858"
     inkscape:window-height="1057"
     inkscape:window-x="1974"
     inkscape:window-y="-8"
     inkscape:window-maximized="1"
     inkscape:current-layer="Layer_1" />
  <defs
     id="defs4">
    <style
       id="style2">.cls-1{fill:none;}.cls-2{fill:#222;}</style>
  </defs>
  <path
     id="path10"
     class="cls-2"
     d="m 70.5,206.6 a 126.7,126.7 0 0 0 15.6,39.9 c 15.3,25 46.9,54.9 110.4,54.9 63.5,0 95,-29.9 110.4,-54.9 a 131.3,131.3 0 0 0 16.4,-43.9 h 3.8 l 5.8,-11.5 c 0.7,-3.1 21.3,-75.9 21.3,-121.2 0,-15.7 -5.6,-29.4 -16.2,-39.5 -10.6,-10.1 -23.6,-15.5 -40.9,-18.3 -8.9,-1.5 -16.3,2.4 -20,2.4 C 260,10.4 148.5,-18.2 87.4,18.4 82,21.3 38.7,46 38.7,84.6 c 0,21.2 7.3,35.1 15.4,43.4 -8.3,23 -11.7,58 16.4,78.6 z m 210.8,24.2 c -16.5,27 -45.1,40.6 -84.8,40.6 -39.7,0 -67.6,-13.3 -84.2,-39.6 A 98.8,98.8 0 0 1 98.7,194.2 c 12.7,-20.7 50.3,-73.6 103.8,-74.7 48.1,-1 58.6,19.5 76,53.5 3.7,7.1 7.5,14.5 11.8,22.1 l 3.4,2.6 a 97.6,97.6 0 0 1 -12.4,33.1 z M 83.9,57.8 a 93.3,93.3 0 0 1 17.8,-12.9 l 0.9,-0.5 C 124.4,31.2 160.2,26.2 206,29.9 a 291.8,291.8 0 0 1 65.8,13.3 l 2.2,0.5 h 2.2 c 7.7,-0.3 30.1,-1.9 41.2,8.7 4.6,4.5 6.8,10.1 6.8,17.7 0,30 -8.9,75.5 -14,99 l -5,-9.6 C 287.3,124.5 268.8,88.3 201.8,89.7 140.6,91 98.4,140.7 79.1,169.3 77.6,163.8 78,158.1 78.6,153.5 a 76.7,76.7 0 0 1 5.1,-18.5 16.9,16.9 0 0 0 1.9,-3.2 70.6,70.6 0 0 1 4.7,-8.8 l 0.9,-1.3 c 4.7,-7.4 12.4,-17.5 23.2,-25.3 A 15.013411,15.013411 0 1 0 96.9,72 116.6,116.6 0 0 0 70.7,98.5 42.5,42.5 0 0 1 68.7,84.7 C 68.7,74 77,64.1 83.9,57.8 Z M 295.5,313.4 H 97.4 C 43.7,313.4 0,360.6 0,418.7 v 65.6 h 33.5 v -65.6 c 0,-38.1 28.7,-69.1 63.9,-69.1 h 21.2 c 21.2,27.1 83.1,88.8 155.2,0 h 21.7 c 35.3,0 64,31 64,69.1 v 65.6 h 33.4 v -65.6 c 0,-58.1 -43.7,-105.3 -97.4,-105.3 z" />
</svg>
