<?xml version="1.0" encoding="UTF-8" standalone="no"?>
<svg
   viewBox="0 0 21.23 39.62"
   version="1.1"
   id="svg24"
   sodipodi:docname="kunstig_negl.svg"
   inkscape:version="1.1 (c68e22c387, 2021-05-23)"
   xmlns:inkscape="http://www.inkscape.org/namespaces/inkscape"
   xmlns:sodipodi="http://sodipodi.sourceforge.net/DTD/sodipodi-0.dtd"
   xmlns="http://www.w3.org/2000/svg"
   xmlns:svg="http://www.w3.org/2000/svg">
  <sodipodi:namedview
     id="namedview26"
     pagecolor="#ffffff"
     bordercolor="#666666"
     borderopacity="1.0"
     inkscape:pageshadow="2"
     inkscape:pageopacity="0.0"
     inkscape:pagecheckerboard="0"
     showgrid="false"
     inkscape:zoom="22.009087"
     inkscape:cx="10.609254"
     inkscape:cy="23.422144"
     inkscape:window-width="1858"
     inkscape:window-height="1057"
     inkscape:window-x="54"
     inkscape:window-y="-8"
     inkscape:window-maximized="1"
     inkscape:current-layer="Layer_1-2" />
  <defs
     id="defs4">
    <style
       id="style2">.cls-1{fill:none;}.cls-2{fill:#222;}.cls-3{fill:#fff;}</style>
  </defs>
  <g
     id="Layer_2"
     data-name="Layer 2">
    <g
       id="Layer_1-2"
       data-name="Layer 1">
      <path
         id="path16"
         class="cls-2"
         d="m 3.93,15.83 a 6.48,6.48 0 0 0 6.29,6.66 H 11 a 6.48,6.48 0 0 0 6.29,-6.66 V 0 H 3.93 Z m 7.52,1.7 a 2.39,2.39 0 0 0 2.39,-2.39 0.88,0.88 0 0 1 1.76,0 4.15,4.15 0 0 1 -4.14,4.15 v 0 a 0.88,0.88 0 1 1 0,-1.76 z m 3.15,15.64 h -8 a 0.5,0.5 0 0 0 -0.5,0.5 0.5,0.5 0 0 0 0.5,0.5 h 8 a 0.5,0.5 0 0 0 0.5,-0.5 0.5,0.5 0 0 0 -0.5,-0.5 z m 0,-3.6 h -8 a 0.5,0.5 0 0 0 -0.5,0.5 0.5,0.5 0 0 0 0.5,0.5 h 8 a 0.5,0.5 0 0 0 0.5,-0.5 0.5,0.5 0 0 0 -0.5,-0.5 z m 0,-3.57 h -8 A 0.5,0.5 0 0 0 6.1,26.5 0.5,0.5 0 0 0 6.6,27 h 8 A 0.5,0.5 0 0 0 15.1,26.5 0.5,0.5 0 0 0 14.6,26 Z m 6.63,13.62 V 19.14 c 0,-0.16 0,-0.31 0,-0.47 a 10.54,10.54 0 0 0 -0.42,-2.56 10.85,10.85 0 0 0 -0.8,-2 11.11,11.11 0 0 0 -1.85,-2.49 v 0 0 a 9,9 0 0 0 -0.8,-0.71 V 13 a 9,9 0 0 1 2.43,6.18 v 19 H 1.5 v -19 A 9.07,9.07 0 0 1 3.93,13 v -2.09 a 11.25,11.25 0 0 0 -1.4,1.36 l -0.11,0.12 a 10.63,10.63 0 0 0 -1.92,3.55 0.08,0.08 0 0 0 0,0.05 8.75,8.75 0 0 0 -0.23,0.88 c 0,0.05 0,0.1 0,0.14 0,0.28 -0.09,0.56 -0.12,0.85 0,0.07 0,0.14 0,0.21 0,0.35 0,0.7 0,1.06 H 0 v 20.49 z" />
    </g>
  </g>
</svg>
