<?xml version="1.0" encoding="UTF-8" standalone="no"?>
<svg
   viewBox="0 0 21.23 38.36"
   version="1.1"
   id="svg24"
   sodipodi:docname="lang_negl.svg"
   inkscape:version="1.1 (c68e22c387, 2021-05-23)"
   xmlns:inkscape="http://www.inkscape.org/namespaces/inkscape"
   xmlns:sodipodi="http://sodipodi.sourceforge.net/DTD/sodipodi-0.dtd"
   xmlns="http://www.w3.org/2000/svg"
   xmlns:svg="http://www.w3.org/2000/svg">
  <sodipodi:namedview
     id="namedview26"
     pagecolor="#ffffff"
     bordercolor="#666666"
     borderopacity="1.0"
     inkscape:pageshadow="2"
     inkscape:pageopacity="0.0"
     inkscape:pagecheckerboard="0"
     showgrid="false"
     inkscape:zoom="22.732012"
     inkscape:cx="10.623785"
     inkscape:cy="19.201996"
     inkscape:window-width="1858"
     inkscape:window-height="1057"
     inkscape:window-x="54"
     inkscape:window-y="-8"
     inkscape:window-maximized="1"
     inkscape:current-layer="Layer_1-2" />
  <defs
     id="defs4">
    <style
       id="style2">.cls-1{fill:none;}.cls-2{fill:#222;}</style>
  </defs>
  <g
     id="Layer_1-2"
     data-name="Layer 1">
    <path
       id="path20"
       class="cls-2"
       d="m 10.27,17.2 v 0 a 4.15,4.15 0 0 0 4.14,-4.15 0.88,0.88 0 1 0 -1.76,0 2.39,2.39 0 0 1 -2.38,2.39 0.88,0.88 0 1 0 0,1.76 z M 3.93,14.94 a 6.29,6.29 0 0 0 6.29,6.29 H 11 a 6.29,6.29 0 0 0 6.29,-6.29 V 0 H 3.93 Z M 5.43,1.5 H 15.8 V 14.94 A 4.8,4.8 0 0 1 11,19.73 H 10.21 A 4.8,4.8 0 0 1 5.42,14.94 Z m 9.17,30.42 h -8 a 0.5,0.5 0 0 0 -0.5,0.5 0.5,0.5 0 0 0 0.5,0.5 h 8 a 0.5,0.5 0 0 0 0.5,-0.5 0.5,0.5 0 0 0 -0.5,-0.5 z m 0,-3.61 h -8 a 0.5,0.5 0 0 0 -0.5,0.5 0.5,0.5 0 0 0 0.5,0.5 h 8 a 0.5,0.5 0 0 0 0.5,-0.5 0.5,0.5 0 0 0 -0.5,-0.5 z m 0,-3.6 h -8 a 0.5,0.5 0 0 0 -0.5,0.5 0.5,0.5 0 0 0 0.5,0.5 h 8 a 0.5,0.5 0 0 0 0.5,-0.5 0.5,0.5 0 0 0 -0.5,-0.5 z m 6.63,13.65 V 17.88 c 0,-0.15 0,-0.31 0,-0.47 a 10.54,10.54 0 0 0 -0.42,-2.56 10.85,10.85 0 0 0 -0.8,-2 11.11,11.11 0 0 0 -1.85,-2.49 v 0 0 a 7.76,7.76 0 0 0 -0.8,-0.72 v 2.06 a 9,9 0 0 1 2.43,6.18 v 19 H 1.5 v -19 A 9.07,9.07 0 0 1 3.93,11.7 v -2 A 11.33,11.33 0 0 0 2.53,11 1.14,1.14 0 0 1 2.42,11.11 10.63,10.63 0 0 0 0.5,14.68 c 0,0 0,0 0,0.05 -0.09,0.29 -0.17,0.59 -0.23,0.88 0,0.05 0,0.1 0,0.14 0,0.28 -0.09,0.57 -0.12,0.85 0,0.07 0,0.14 0,0.21 0,0.35 0,0.7 0,1.06 H 0 v 20.49 z" />
  </g>
</svg>
