<?xml version="1.0" encoding="UTF-8" standalone="no"?>
<svg
   viewBox="0 0 25 40.3"
   version="1.1"
   id="svg12"
   sodipodi:docname="plastforkle.svg"
   inkscape:version="1.1 (c68e22c387, 2021-05-23)"
   xmlns:inkscape="http://www.inkscape.org/namespaces/inkscape"
   xmlns:sodipodi="http://sodipodi.sourceforge.net/DTD/sodipodi-0.dtd"
   xmlns="http://www.w3.org/2000/svg"
   xmlns:svg="http://www.w3.org/2000/svg">
  <sodipodi:namedview
     id="namedview14"
     pagecolor="#ffffff"
     bordercolor="#666666"
     borderopacity="1.0"
     inkscape:pageshadow="2"
     inkscape:pageopacity="0.0"
     inkscape:pagecheckerboard="0"
     showgrid="false"
     inkscape:zoom="21.637718"
     inkscape:cx="12.501319"
     inkscape:cy="20.126892"
     inkscape:window-width="1858"
     inkscape:window-height="1057"
     inkscape:window-x="54"
     inkscape:window-y="-8"
     inkscape:window-maximized="1"
     inkscape:current-layer="Layer_1-2" />
  <defs
     id="defs4">
    <style
       id="style2">.cls-1{fill:none;}.cls-2{fill:#222;}</style>
  </defs>
  <g
     id="Layer_1-2"
     data-name="Layer 1">
    <path
       class="cls-2"
       d="m 6.1,7.4 c 0.2,4.9 -0.6,8.4 -2.5,9.8 A 2.8,2.8 0 0 1 1.9,17.9 H 0 V 40.3 H 25 V 17.9 H 23.4 A 2.8,2.8 0 0 1 21.7,17.2 C 19.9,15.8 19.3,12.6 19.2,8 V 1 a 1.1,1.1 0 0 0 -1.1,-1 1.1,1.1 0 0 0 -1,1 V 6.3 H 8.2 V 1 A 1.1,1.1 0 0 0 7.1,0 1.1,1.1 0 0 0 6.1,1 V 6.9 M 23,38.3 H 2 V 19.9 A 6.1,6.1 0 0 0 4.9,18.8 C 7.7,16.6 8.2,12.1 8.2,8.3 h 8.9 c -0.1,3.8 0.6,8.1 3.3,10.5 a 4.7,4.7 0 0 0 2.6,1.1 z"
       id="path8" />
  </g>
</svg>
