<?xml version="1.0" encoding="UTF-8" standalone="no"?>
<svg
   viewBox="0 0 32.6 40"
   version="1.1"
   id="svg18"
   sodipodi:docname="smittefrakk.svg"
   inkscape:version="1.1 (c68e22c387, 2021-05-23)"
   xmlns:inkscape="http://www.inkscape.org/namespaces/inkscape"
   xmlns:sodipodi="http://sodipodi.sourceforge.net/DTD/sodipodi-0.dtd"
   xmlns="http://www.w3.org/2000/svg"
   xmlns:svg="http://www.w3.org/2000/svg">
  <sodipodi:namedview
     id="namedview20"
     pagecolor="#ffffff"
     bordercolor="#666666"
     borderopacity="1.0"
     inkscape:pageshadow="2"
     inkscape:pageopacity="0.0"
     inkscape:pagecheckerboard="0"
     showgrid="false"
     inkscape:zoom="21.8"
     inkscape:cx="16.307339"
     inkscape:cy="20.022936"
     inkscape:window-width="1858"
     inkscape:window-height="1057"
     inkscape:window-x="54"
     inkscape:window-y="-8"
     inkscape:window-maximized="1"
     inkscape:current-layer="Layer_1-2" />
  <defs
     id="defs4">
    <style
       id="style2">.cls-1{fill:none;}.cls-2{fill:#222;}</style>
  </defs>
  <g
     id="Layer_1-2"
     data-name="Layer 1">
    <path
       id="path14"
       class="cls-2"
       d="M 32.6,21.8 30.3,8.2 a 7.9,7.9 0 0 0 -4.6,-6 v 0 a 6.5,6.5 0 0 0 -4,-2.1 H 11.4 A 5.7,5.7 0 0 0 7.1,2.7 7.5,7.5 0 0 0 2.7,8.4 L 0,21.9 l 0.7,0.2 -0.2,1.1 4.2,0.9 0.2,-0.9 1.2,0.3 V 38 38 a 2,2 0 0 0 2,2 h 17 a 2,2 0 0 0 2,-2 V 23.1 h 0.3 l 0.2,1 4.3,-0.9 L 31.6,22 Z M 6.1,6 V 17.3 L 5.3,21.2 2.3,20.4 4.7,8.8 A 6.1,6.1 0 0 1 6.1,5.9 Z M 18.6,2.1 a 2.6,2.6 0 0 1 -2,1 2.3,2.3 0 0 1 -2,-1 z M 25.1,7 V 38 H 8.1 V 6 A 4.7,4.7 0 0 1 8.4,4.3 4.4,4.4 0 0 1 9.2,3.2 4.2,4.2 0 0 1 10.6,2.3 3.7,3.7 0 0 1 12.1,2 h 0.2 a 4.1,4.1 0 0 0 1.5,2.1 4.5,4.5 0 0 0 2.8,1 4.4,4.4 0 0 0 4.2,-3.1 h 0.3 l 1.1,0.2 a 3.4,3.4 0 0 1 1.2,0.6 3.3,3.3 0 0 1 1.2,1.4 3.5,3.5 0 0 1 0.5,1.8 z m 2.2,13.9 -0.2,-1.7 V 6 C 27.1,5.9 27,5.7 27,5.6 a 5.9,5.9 0 0 1 1.3,3 l 2,11.7 z" />
  </g>
</svg>
