<?xml version="1.0" encoding="UTF-8" standalone="no"?>
<svg
   id="Layer_1"
   data-name="Layer 1"
   viewBox="0 0 44 18"
   version="1.1"
   sodipodi:docname="vernebriller - Copy.svg"
   inkscape:version="1.1 (c68e22c387, 2021-05-23)"
   xmlns:inkscape="http://www.inkscape.org/namespaces/inkscape"
   xmlns:sodipodi="http://sodipodi.sourceforge.net/DTD/sodipodi-0.dtd"
   xmlns="http://www.w3.org/2000/svg"
   xmlns:svg="http://www.w3.org/2000/svg">
  <sodipodi:namedview
     id="namedview14496"
     pagecolor="#ffffff"
     bordercolor="#666666"
     borderopacity="1.0"
     inkscape:pageshadow="2"
     inkscape:pageopacity="0.0"
     inkscape:pagecheckerboard="0"
     showgrid="false"
     inkscape:zoom="24.045455"
     inkscape:cx="14.992439"
     inkscape:cy="9.0037807"
     inkscape:window-width="1858"
     inkscape:window-height="1057"
     inkscape:window-x="1974"
     inkscape:window-y="-8"
     inkscape:window-maximized="1"
     inkscape:current-layer="Layer_1" />
  <defs
     id="defs14490">
    <style
       id="style14488">.cls-1{fill:#222;}</style>
  </defs>
  <path
     class="cls-1"
     d="M 39,0 H 5 A 5,5 0 0 0 0,5 v 8 a 5,5 0 0 0 5,5 h 11.5 l 4.7,-6 A 1,1 0 0 1 22,11.6 0.8,0.8 0 0 1 22.7,12 l 4.7,6 H 39 a 5,5 0 0 0 5,-5 V 5 A 5,5 0 0 0 39,0 Z m 3,13 a 3.1,3.1 0 0 1 -3,3 H 28.4 L 24.3,10.8 A 2.7,2.7 0 0 0 22,9.6 2.9,2.9 0 0 0 19.6,10.8 L 15.5,16 H 5 A 3,3 0 0 1 2,13 V 5 A 2.9,2.9 0 0 1 5,2 h 34 a 3,3 0 0 1 3,3 z"
     id="path14492" />
</svg>
